<svg width="32" height="32" viewBox="0 0 32 32" fill="none" xmlns="http://www.w3.org/2000/svg">
<path fill-rule="evenodd" clip-rule="evenodd" d="M12.3083 21.1256L9.86487 21.7635L10.5171 19.3925L10.3636 19.1495C9.71732 18.1265 9.376 16.9442 9.3765 15.7301C9.37791 12.1877 12.2741 9.30564 15.8351 9.30564C17.5595 9.30623 19.1805 9.97538 20.3994 11.1899C21.6182 12.4043 22.2891 14.0186 22.2885 15.7354C22.287 19.2781 19.3909 22.1604 15.8326 22.1604H15.83C14.6715 22.16 13.5353 21.8502 12.5441 21.2648L12.3083 21.1256ZM18.0476 16.72C18.2255 16.7845 19.1797 17.2517 19.3738 17.3484C19.4117 17.3673 19.4471 17.3843 19.4799 17.4001C19.6153 17.4652 19.7067 17.5092 19.7457 17.574C19.7942 17.6546 19.7942 18.0413 19.6326 18.4925C19.4708 18.9437 18.6954 19.3555 18.3225 19.4109C17.9882 19.4607 17.565 19.4814 17.1001 19.3344C16.8182 19.2454 16.4568 19.1265 15.9937 18.9275C14.1742 18.1456 12.9447 16.3906 12.7123 16.0589C12.696 16.0357 12.6846 16.0194 12.6782 16.011L12.6767 16.0089C12.574 15.8725 11.8858 14.9587 11.8858 14.0129C11.8858 13.1232 12.3249 12.6569 12.527 12.4422C12.5409 12.4275 12.5536 12.414 12.565 12.4016C12.7429 12.2082 12.9532 12.1599 13.0826 12.1599C13.2119 12.1599 13.3415 12.1611 13.4546 12.1667C13.4685 12.1674 13.483 12.1673 13.498 12.1672C13.6111 12.1666 13.7521 12.1658 13.8912 12.4983C13.9447 12.6262 14.023 12.816 14.1056 13.0161C14.2726 13.4207 14.4571 13.8678 14.4896 13.9324C14.5381 14.0291 14.5705 14.1419 14.5058 14.2709C14.504 14.2745 14.5022 14.2781 14.5004 14.2816C14.4927 14.297 14.4855 14.3117 14.4785 14.3259C14.4299 14.4246 14.3942 14.4972 14.3117 14.593C14.2793 14.6307 14.2458 14.6713 14.2123 14.712C14.1455 14.7929 14.0787 14.8738 14.0206 14.9315C13.9234 15.0278 13.8223 15.1323 13.9355 15.3256C14.0487 15.519 14.4382 16.1515 15.0152 16.6637C15.6354 17.2142 16.1744 17.4469 16.4477 17.5649C16.501 17.5879 16.5442 17.6066 16.576 17.6224C16.77 17.7191 16.8832 17.7029 16.9964 17.574C17.1096 17.4451 17.4816 17.01 17.6109 16.8167C17.7403 16.6234 17.8697 16.6556 18.0476 16.72Z" fill="#525252"/>
<path fill-rule="evenodd" clip-rule="evenodd" d="M15.8327 23.4659C20.1152 23.4642 23.5983 19.997 23.6 15.7358C23.6008 13.6703 22.7936 11.7282 21.3272 10.2671C19.8607 8.80593 17.9104 8.00089 15.8326 8C11.5513 8 8.06683 11.4676 8.06512 15.7297C8.06454 17.0921 8.42221 18.4219 9.10194 19.5943L8 23.6L12.1176 22.525C13.2521 23.1409 14.5295 23.4655 15.8294 23.4659H15.8327ZM12.3083 21.1256L9.86487 21.7635L10.5171 19.3925L10.3636 19.1495C9.71732 18.1265 9.376 16.9442 9.3765 15.7301C9.37791 12.1877 12.2741 9.30564 15.8351 9.30564C17.5595 9.30623 19.1805 9.97538 20.3994 11.1899C21.6182 12.4043 22.2891 14.0186 22.2885 15.7354C22.287 19.2781 19.3909 22.1604 15.8326 22.1604H15.83C14.6715 22.16 13.5353 21.8502 12.5441 21.2648L12.3083 21.1256ZM14.4785 14.3259L14.5004 14.2816C14.4927 14.297 14.4855 14.3117 14.4785 14.3259ZM14.5004 14.2816C14.5004 14.2816 14.5004 14.2816 14.5004 14.2816V14.2816Z" fill="#525252"/>
</svg>
