<svg width="32" height="32" viewBox="0 0 32 32" fill="none" xmlns="http://www.w3.org/2000/svg">
<path d="M16.8827 21.0379C16.8827 21.0379 17.2076 21.0024 17.374 20.827C17.5263 20.6663 17.521 20.3629 17.521 20.3629C17.521 20.3629 17.5008 18.9466 18.1707 18.7374C18.831 18.5318 19.6788 20.1071 20.5786 20.7129C21.2582 21.171 21.7741 21.0707 21.7741 21.0707L24.1785 21.0379C24.1785 21.0379 25.4356 20.9618 24.8396 19.9913C24.7903 19.9118 24.4919 19.2732 23.0525 17.9614C21.5444 16.5882 21.7469 16.8103 23.5622 14.4347C24.668 12.988 25.1099 12.1049 24.9717 11.7272C24.8405 11.366 24.027 11.4619 24.027 11.4619L21.3207 11.4783C21.3207 11.4783 21.12 11.4515 20.9712 11.5388C20.826 11.6244 20.7318 11.824 20.7318 11.824C20.7318 11.824 20.3039 12.9431 19.7325 13.8954C18.5273 15.9038 18.0457 16.0101 17.8485 15.8856C17.3898 15.5944 17.5043 14.7173 17.5043 14.0942C17.5043 12.1472 17.8054 11.3357 16.9188 11.1257C16.6248 11.0557 16.4082 11.0099 15.6555 11.0022C14.6897 10.9927 13.8727 11.0056 13.4096 11.2277C13.1015 11.3755 12.8638 11.7056 13.0091 11.7246C13.1878 11.7479 13.5928 11.8318 13.8076 12.1187C14.0849 12.4894 14.0752 13.3208 14.0752 13.3208C14.0752 13.3208 14.2346 15.6126 13.7028 15.8969C13.3383 16.0922 12.8383 15.6938 11.7633 13.8712C11.2131 12.9379 10.7976 11.9061 10.7976 11.9061C10.7976 11.9061 10.7174 11.7134 10.5739 11.6097C10.4005 11.4844 10.1584 11.4455 10.1584 11.4455L7.58681 11.4619C7.58681 11.4619 7.20032 11.4723 7.05858 11.6373C6.93268 11.7834 7.04889 12.0867 7.04889 12.0867C7.04889 12.0867 9.06233 16.7109 11.3425 19.0416C13.4334 21.1779 15.8069 21.0379 15.8069 21.0379H16.8827Z" fill="#525252"/>
</svg>
