<svg width="32" height="32" viewBox="0 0 32 32" fill="none" xmlns="http://www.w3.org/2000/svg">
<path d="M23 24H14C13.4477 24 13 23.5523 13 23V13.6C13 13.2686 13.2686 13 13.6 13H23C23.5523 13 24 13.4477 24 14V23C24 23.5523 23.5523 24 23 24Z" fill="#525252"/>
<path d="M14 24.5H23V23.5H14V24.5ZM24.5 23V14H23.5V23H24.5ZM23 12.5H13.6V13.5H23V12.5ZM12.5 13.6V23H13.5V13.6H12.5ZM24.5 14C24.5 13.1716 23.8284 12.5 23 12.5V13.5C23.2761 13.5 23.5 13.7239 23.5 14H24.5ZM23 24.5C23.8284 24.5 24.5 23.8284 24.5 23H23.5C23.5 23.2761 23.2761 23.5 23 23.5V24.5ZM14 23.5C13.7239 23.5 13.5 23.2761 13.5 23H12.5C12.5 23.8284 13.1716 24.5 14 24.5V23.5ZM13.6 12.5C12.9925 12.5 12.5 12.9925 12.5 13.6H13.5C13.5 13.5448 13.5448 13.5 13.6 13.5V12.5Z" fill="white"/>
<path d="M19 9V12.4C19 12.7314 18.7314 13 18.4 13H13.1C13.0448 13 13 13.0448 13 13.1V18.4C13 18.7314 12.7314 19 12.4 19H9C8.44772 19 8 18.5523 8 18V9C8 8.44772 8.44771 8 9 8H18C18.5523 8 19 8.44772 19 9Z" fill="#525252"/>
<path d="M19.5 12.4V9H18.5V12.4H19.5ZM18 7.5H9V8.5H18V7.5ZM7.5 9V18H8.5V9H7.5ZM9 19.5H12.4V18.5H9V19.5ZM13.5 18.4V13.1H12.5V18.4H13.5ZM13.1 13.5H18.4V12.5H13.1V13.5ZM13.5 13.1C13.5 13.3209 13.3209 13.5 13.1 13.5V12.5C12.7686 12.5 12.5 12.7686 12.5 13.1H13.5ZM12.4 19.5C13.0075 19.5 13.5 19.0075 13.5 18.4H12.5C12.5 18.4552 12.4552 18.5 12.4 18.5V19.5ZM7.5 18C7.5 18.8284 8.17157 19.5 9 19.5V18.5C8.72386 18.5 8.5 18.2761 8.5 18H7.5ZM9 7.5C8.17157 7.5 7.5 8.17157 7.5 9H8.5C8.5 8.72386 8.72386 8.5 9 8.5V7.5ZM19.5 9C19.5 8.17157 18.8284 7.5 18 7.5V8.5C18.2761 8.5 18.5 8.72386 18.5 9H19.5ZM18.5 12.4C18.5 12.4552 18.4552 12.5 18.4 12.5V13.5C19.0075 13.5 19.5 13.0075 19.5 12.4H18.5Z" fill="white"/>
</svg>
