<?xml version="1.0" standalone="no"?>
<!DOCTYPE svg PUBLIC "-//W3C//DTD SVG 20010904//EN"
 "http://www.w3.org/TR/2001/REC-SVG-20010904/DTD/svg10.dtd">
<svg version="1.0" xmlns="http://www.w3.org/2000/svg"
 width="700.000000pt" height="700.000000pt" viewBox="0 0 700.000000 700.000000"
 preserveAspectRatio="xMidYMid meet">
<metadata>
Created by potrace 1.14, written by Peter Selinger 2001-2017
</metadata>
<g transform="translate(0.000000,700.000000) scale(0.100000,-0.100000)"
fill="#000000" stroke="none">
<path d="M0 3500 l0 -3500 3500 0 3500 0 0 3500 0 3500 -3500 0 -3500 0 0
-3500z m4872 62 c461 -607 838 -1105 838 -1108 0 -2 -280 -4 -622 -4 l-623 0
-514 623 c-282 342 -516 623 -520 624 -3 1 -238 -279 -521 -623 l-515 -624
-614 0 c-489 0 -611 3 -604 13 6 6 385 506 843 1110 l833 1097 591 -2 590 -3
838 -1103z"/>
</g>
</svg>
